<svg width="29" height="38" viewBox="0 0 29 38" fill="none" xmlns="http://www.w3.org/2000/svg">
    <path
        d="M4.78125 0H12.3072C22.1171 0 29.0017 7.93273 29.0017 18.6787C29.0017 30.8737 19.8554 36.3221 11.9081 36.3221H4.11069C2.31142 36.3221 1.31201 35.2225 1.31201 32.8237V2.43557C1.31201 1.05165 2.2352 0 4.78125 0ZM24.1348 24.6066C24.1348 24.6066 27.2872 16.4161 23.2621 10.1396C19.2371 3.86317 12.1068 2.22147 8.62644 5.91765C6.38784 8.46198 6.89824 12.04 8.30957 13.4505C9.72005 14.8609 11.8259 15.7404 15.4853 16.8854C19.1446 18.0304 21.2505 19.2773 22.6404 21.0355C24.0303 22.7937 24.1348 24.6066 24.1348 24.6066ZM4.62966 14.9808V23.9087C4.62966 30.1792 9.04864 32.6567 13.0171 32.6567C16.9857 32.6567 20.5037 30.7992 20.5037 26.2954C20.5037 21.7917 16.0008 20.8068 11.891 19.512C7.78204 18.2171 5.81148 16.697 4.62966 14.9808Z"
        fill="#FFFFFF" />
    <path
        d="M3.46923 1.5918H10.9952C20.8051 1.5918 27.6896 9.52454 27.6896 20.2705C27.6896 32.4655 18.5434 37.9138 10.5961 37.9138H2.79868C0.999406 37.9138 0 36.8142 0 34.4155V4.02737C0 2.64344 0.923189 1.5918 3.46923 1.5918ZM22.8228 26.1984C22.8228 26.1984 25.9752 18.0079 21.9501 11.7315C17.9251 5.45497 10.7948 3.81327 7.31443 7.50945C5.07582 10.0538 5.58623 13.6318 6.99756 15.0423C8.40803 16.4527 10.5139 17.3322 14.1732 18.4772C17.8326 19.6222 19.9385 20.8691 21.3284 22.6273C22.7183 24.3855 22.8228 26.1984 22.8228 26.1984ZM3.31765 16.5726V25.5005C3.31765 31.771 7.73662 34.2485 11.7051 34.2485C15.6736 34.2485 19.1917 32.391 19.1917 27.8872C19.1917 23.3835 14.6888 22.3986 10.579 21.1038C6.46917 19.8089 4.49947 18.2888 3.31765 16.5726Z"
        fill="#202020"
    />
    <path
        d="M10.9962 1.59265H3.47023C2.57188 1.59265 1.87992 1.72539 1.35495 1.95576C1.32755 2.10991 1.31299 2.27006 1.31299 2.43534V32.8235C1.31299 35.2222 2.31239 36.3218 4.11167 36.3218H11.9091C16.3281 36.3218 21.1161 34.6364 24.498 31.0448C26.4549 28.3214 27.6906 24.752 27.6906 20.2705C27.6906 9.52454 20.8061 1.5918 10.9962 1.5918V1.59265ZM18.4725 30.9882C17.2444 33.2628 14.5956 34.2485 11.7053 34.2485C7.73676 34.2485 3.31779 31.7718 3.31779 25.5005V16.5726C3.67234 17.0873 4.09797 17.5832 4.62978 18.0619V14.9806C5.8116 16.6977 7.78216 18.2177 11.8911 19.5117C16.0001 20.8066 20.5038 21.7915 20.5038 26.2952C20.5038 28.4225 19.7185 29.958 18.4725 30.9874V30.9882ZM23.687 22.8448C23.3393 24.8573 22.8229 26.1993 22.8229 26.1993C22.8229 26.1993 22.7184 24.3863 21.3285 22.6282C19.9386 20.87 17.8327 19.6231 14.1734 18.4781C10.514 17.3331 8.40818 16.4544 6.9977 15.0431C5.58723 13.6326 5.07597 10.0546 7.31457 7.51031C7.48842 7.32533 7.67425 7.15747 7.86608 6.99904C8.07247 6.6248 8.3234 6.26169 8.62656 5.91828C12.1069 2.2221 19.2372 3.8638 23.2623 10.1403C27.2873 16.4168 24.1349 24.6073 24.1349 24.6073C24.1349 24.6073 24.0912 23.8528 23.687 22.8448Z"
        fill="#AAAAAA"
    />
</svg>
